# xmcd
#
# Track frame offsets: 
#        150
#        24407
#        40964
#        59813
#        77368
#        97532
#        115836
#        138882
#        158658
#        176839
#        197060
#        216537
#        235712
#        253587
#        270949
#        292180
#
# Disc length: 4175 seconds
#
# Revision: 0
# Processed by: cddbd v1.5.2PL0 Copyright (c) Steve Scherf et al.
# Submitted via: ExactAudioCopy v1.0b2
#
DISCID=da104d10
DTITLE=王菲 - 阿菲正传 2
DYEAR=2009
DGENRE=Pop
TTITLE0=尾班车
TTITLE1=有缘的话
TTITLE2=可否抱紧我
TTITLE3=浪漫风暴
TTITLE4=执迷不悔 (粤语版)
TTITLE5=不再儿嬉
TTITLE6=把锁匙投进信箱
TTITLE7=长大
TTITLE8=流非飞
TTITLE9=如风
TTITLE10=容易受伤的女人 (国语版)
TTITLE11=回忆是红色的天空
TTITLE12=爱一次给不完
TTITLE13=只因喜欢faye
TTITLE14=天与地
TTITLE15=梦游
EXTD=
EXTT0=
EXTT1=
EXTT2=
EXTT3=
EXTT4=
EXTT5=
EXTT6=
EXTT7=
EXTT8=
EXTT9=
EXTT10=
EXTT11=
EXTT12=
EXTT13=
EXTT14=
EXTT15=
PLAYORDER=
